<svg width="58" height="58" viewBox="0 0 58 58" fill="none" xmlns="http://www.w3.org/2000/svg">
<path d="M28.9771 57.9541C44.9807 57.9541 57.9541 44.9807 57.9541 28.9771C57.9541 12.9735 44.9807 0 28.9771 0C12.9735 0 0 12.9735 0 28.9771C0 44.9807 12.9735 57.9541 28.9771 57.9541Z" fill="#E6ECFF"/>
<path d="M51.2019 47.6222C46.8712 42.4564 40.7721 38.8251 33.8367 37.6561C38.6404 35.7298 42.0366 31.0388 42.0366 25.547C42.0366 18.3389 36.1931 12.4961 28.9857 12.4961C21.7783 12.4961 15.9348 18.3389 15.9348 25.547C15.9348 31.0388 19.3311 35.7298 24.1347 37.6561C17.1993 38.8251 11.0996 42.4571 6.76953 47.6222C12.0848 53.9629 20.0647 57.9947 28.9857 57.9947C37.9074 57.9947 45.8866 53.9629 51.2019 47.6222Z" fill="#4294FF"/>
</svg>
