<svg width="53" height="53" viewBox="0 0 53 53" fill="none" xmlns="http://www.w3.org/2000/svg">
<path d="M26.4807 52.9614C41.1056 52.9614 52.9614 41.1056 52.9614 26.4807C52.9614 11.8558 41.1056 0 26.4807 0C11.8558 0 0 11.8558 0 26.4807C0 41.1056 11.8558 52.9614 26.4807 52.9614Z" fill="#E6ECFF"/>
<path d="M46.792 43.518C42.8344 38.7972 37.2608 35.4787 30.9229 34.4104C35.3126 32.6501 38.4163 28.3632 38.4163 23.3445C38.4163 16.7574 33.0762 11.418 26.4898 11.418C19.9033 11.418 14.5632 16.7574 14.5632 23.3445C14.5632 28.3632 17.6669 32.6501 22.0566 34.4104C15.7187 35.4787 10.1446 38.7978 6.1875 43.518C11.0449 49.3124 18.3373 52.9968 26.4898 52.9968C34.6428 52.9968 41.9346 49.3124 46.792 43.518Z" fill="#4294FF"/>
</svg>
